REM Ripping Tool: trurip

FILE "Lodoss-Tou Senki (1992)(Hudson)(JP)[AKA Record of Lodoss War].img" BINARY
  TRACK 01 AUDIO
    INDEX 01 00:00:00
  TRACK 02 MODE1/2352
    INDEX 00 01:25:34
    INDEX 01 01:28:33
  TRACK 03 AUDIO
    INDEX 00 05:43:14
    INDEX 01 05:45:14
  TRACK 04 AUDIO
    INDEX 01 07:06:53
  TRACK 05 AUDIO
    INDEX 01 10:40:10
  TRACK 06 MODE1/2352
    INDEX 00 12:47:06
    INDEX 01 12:50:05

REM DISC HASHES
REM CRC32 : 38a7f91b
REM MD5   : c1953da46d49acb65d248aad873111f4
REM SHA1  : 5042cf848cabdc57646d860a9dd11bc197766b23

REM Gap Append Method: Prev [crc32]
REM Trk 01: a513f202
REM Trk 02: b46e4b8a
REM Trk 03: 003638f1
REM Trk 04: 6e4a5936
REM Trk 05: eec166d1
REM Trk 06: c05fc075

REM Gap Append Method: Prev [md5]
REM Trk 01: e1f7322d58f9c947ae9f55e463a2e362
REM Trk 02: 9434f751b7ee981a6cbbe19a1b23bc76
REM Trk 03: 68bfa442bdec24e812794999a0641064
REM Trk 04: bc7d0247e3da11b83f7dfc7055b5d598
REM Trk 05: 7094740068de927153dc6adf80ab6237
REM Trk 06: 79f49564cd1f6a303ce48e6247beed1f

REM Gap Append Method: Prev [sha1]
REM Trk 01: dce80686db259fdbad30cc448636a5760cc605d0
REM Trk 02: c9d70b0c8e61d6d41fb98d48061da79fa9ea926f
REM Trk 03: cdd1e879129fd3d903cd42d2f25913ae7b8ce070
REM Trk 04: 4cd5bdf0efef1e048a77dbde02cce6db661fc364
REM Trk 05: 507c858d54cb92209c1c1c07d474f5085a84c82a
REM Trk 06: e1c81967fbf8a1e2d1af4a5cc4e03e7da65978de

REM Gap Append Method: None [crc32]
REM Trk 01: 04e0f1b2
REM Trk 02: 14a0fc8c
REM Trk 03: 003638f1
REM Trk 04: 6e4a5936
REM Trk 05: 8adb2bc1
REM Trk 06: c05fc075
REM Gap 02: 09e0ae42
REM Gap 03: 7abe247f
REM Gap 06: 6b2f0194

REM Gap Append Method: None [md5]
REM Trk 01: 4e414b6743fb22f7e2dae0a4d3d5bcbe
REM Trk 02: 0071258c6c6d22c4e4a7c03b62c9019a
REM Trk 03: 68bfa442bdec24e812794999a0641064
REM Trk 04: bc7d0247e3da11b83f7dfc7055b5d598
REM Trk 05: 250bf313a7743317651353004ead7a84
REM Trk 06: 79f49564cd1f6a303ce48e6247beed1f
REM Gap 02: bc6746d93a2a813bd03b8bc96c2ce225
REM Gap 03: 9df204fbc98bb8965081cb30a89715fc
REM Gap 06: 53aa139c099e2b394ffd3463435d0a4e

REM Gap Append Method: None [sha1]
REM Trk 01: 0c6261bb9ffc936d7f7e12fb97d3bacc08285320
REM Trk 02: 350aeddc7c067e6ab8b35d631252731fe4c440db
REM Trk 03: cdd1e879129fd3d903cd42d2f25913ae7b8ce070
REM Trk 04: 4cd5bdf0efef1e048a77dbde02cce6db661fc364
REM Trk 05: 13d2b2f555f84438858ddb18f482066c889faf3b
REM Trk 06: e1c81967fbf8a1e2d1af4a5cc4e03e7da65978de
REM Gap 02: 4ed5750cca33ccdf1f0efb5e31e3bc3468e5e451
REM Gap 03: cbe29e0bd725ef1194f8c47619dd42078e841de2
REM Gap 06: 072029f63da13345d8db31b11b4b2ca8c52c2170

REM Gap Append Method: Next [crc32]
REM Trk 01: 04e0f1b2
REM Trk 02: 27bee77f
REM Trk 03: 83e00cf7
REM Trk 04: 6e4a5936
REM Trk 05: 8adb2bc1
REM Trk 06: 8d3616ba

REM Gap Append Method: Next [md5]
REM Trk 01: 4e414b6743fb22f7e2dae0a4d3d5bcbe
REM Trk 02: d8c2b232380fa85c4d0414aae5e0736b
REM Trk 03: 25ffd4e37d23bdbe15ab64bc2ec700dc
REM Trk 04: bc7d0247e3da11b83f7dfc7055b5d598
REM Trk 05: 250bf313a7743317651353004ead7a84
REM Trk 06: a3b2e08c863299ad548a1b40b23add24

REM Gap Append Method: Next [sha1]
REM Trk 01: 0c6261bb9ffc936d7f7e12fb97d3bacc08285320
REM Trk 02: 2a2ecfcf2ef66f4ab306fb1520570a6beeda4422
REM Trk 03: f7ec4fb46bae8b3c9b78d0ce8a8a8df92ed72b63
REM Trk 04: 4cd5bdf0efef1e048a77dbde02cce6db661fc364
REM Trk 05: 13d2b2f555f84438858ddb18f482066c889faf3b
REM Trk 06: 7485a3adbfb0958e27a97d2b043e7d2e6c531e01

